<?xml version="1.0" encoding="utf-8"?>
<!-- Generator: Adobe Illustrator 16.0.0, SVG Export Plug-In . SVG Version: 6.00 Build 0)  -->
<!DOCTYPE svg PUBLIC "-//W3C//DTD SVG 1.1//EN" "http://www.w3.org/Graphics/SVG/1.1/DTD/svg11.dtd">
<svg version="1.1" id="Layer_1" xmlns="http://www.w3.org/2000/svg" xmlns:xlink="http://www.w3.org/1999/xlink" x="0px" y="0px"
	 width="200px" height="146px" viewBox="0 0 200 146" enable-background="new 0 0 200 146" xml:space="preserve">
<path fill="#DBFCFF" d="M63.691,27.463H126.8v-6.491l-5.849-3.951H68.309l-4.617,5.221V27.463z"/>
<path fill="#DBFCFF" d="M64.052,112.88h63.109v6.491l-5.849,3.949H68.67l-4.618-5.219V112.88z"/>
<rect x="63.691" y="27.463" fill="#FFFFFF" width="63.108" height="83.371"/>
<path fill="#0963A1" d="M129,33.064v-9.032c0-4.98-4.42-9.032-9.854-9.032H71.853C66.42,15,62,19.052,62,24.032v93.937
	c0,4.979,4.42,9.031,9.853,9.031h47.293c5.434,0,9.854-4.053,9.854-9.031V94.484V33.064z M71.853,18.613h47.293
	c3.26,0,5.912,2.432,5.912,5.419v1.806H65.941v-1.806C65.941,21.044,68.594,18.613,71.853,18.613z M119.146,123.387H71.853
	c-3.259,0-5.912-2.432-5.912-5.418v-5.421h59.118v5.421C125.059,120.955,122.406,123.387,119.146,123.387z M125.059,94.484v14.451
	H65.941V29.452h59.118v3.613V94.484z"/>
<path fill="#0963A1" d="M109.294,116.161H81.706v3.612h27.588V116.161z"/>
<path fill="#DBFCFF" stroke="#0963A1" stroke-miterlimit="10" d="M136.912,131C150.768,131,162,119.832,162,106.057
	c0-13.776-11.232-24.944-25.088-24.944s-25.09,11.168-25.09,24.944C111.822,119.832,123.057,131,136.912,131z"/>
<path fill="#0963A1" d="M141.436,88.977c0.474-0.187,0.937-0.146,1.39,0.121l5.288,3.15c0.262,0.136,0.507,0.338,0.734,0.607
	c0.227,0.268,0.399,0.545,0.518,0.83c0.006,0.021,0.027,0.084,0.064,0.187c0.038,0.103,0.078,0.239,0.123,0.407
	c0.102,0.402,0.199,1.07,0.291,2.003s0.034,2.118-0.175,3.555s-0.644,3.117-1.306,5.04c-0.661,1.923-1.699,4.055-3.114,6.393
	c-1.088,1.852-2.177,3.433-3.267,4.744s-2.127,2.406-3.112,3.286c-0.986,0.88-1.903,1.585-2.751,2.115
	c-0.85,0.53-1.596,0.933-2.237,1.208c-0.644,0.275-1.157,0.451-1.546,0.527s-0.604,0.119-0.646,0.129
	c-0.308,0.033-0.635,0.016-0.981-0.055s-0.642-0.186-0.888-0.349l-5.32-3.142c-0.373-0.221-0.609-0.521-0.706-0.901
	c-0.071-0.274-0.053-0.538,0.052-0.789c0.105-0.252,0.256-0.481,0.451-0.688l5.604-5.031c0.291-0.277,0.649-0.424,1.074-0.442
	c0.426-0.017,0.813,0.076,1.159,0.281l1.96,1.157c0.053,0.031,0.133,0.051,0.236,0.059s0.188,0.003,0.251-0.014
	c0.425-0.197,0.886-0.516,1.384-0.959c0.445-0.383,0.967-0.93,1.564-1.645c0.598-0.714,1.25-1.679,1.957-2.893
	c0.734-1.199,1.279-2.236,1.631-3.114c0.352-0.876,0.592-1.596,0.72-2.157c0.128-0.561,0.185-0.98,0.17-1.258l-0.022-0.417
	c-0.01-0.042-0.043-0.106-0.1-0.192c-0.057-0.088-0.111-0.147-0.164-0.178l-2.313-1.339c-0.438-0.294-0.723-0.694-0.852-1.202
	c-0.093-0.359-0.102-0.66-0.029-0.904l-0.008-0.031l2.066-7.039C140.75,89.522,141.033,89.17,141.436,88.977z"/>
</svg>
