<?xml version="1.0" encoding="utf-8"?>
<!-- Generator: Adobe Illustrator 16.0.0, SVG Export Plug-In . SVG Version: 6.00 Build 0)  -->
<!DOCTYPE svg PUBLIC "-//W3C//DTD SVG 1.1//EN" "http://www.w3.org/Graphics/SVG/1.1/DTD/svg11.dtd">
<svg version="1.1" id="Layer_1" xmlns="http://www.w3.org/2000/svg" xmlns:xlink="http://www.w3.org/1999/xlink" x="0px" y="0px"
	 width="200px" height="146px" viewBox="0 0 200 146" enable-background="new 0 0 200 146" xml:space="preserve">
<path fill="#DBFCFF" d="M63.691,27.463H126.8v-6.491l-5.849-3.951H68.309l-4.617,5.221V27.463z"/>
<path fill="#DBFCFF" d="M64.052,112.88h63.109v6.491l-5.849,3.949H68.67l-4.618-5.219V112.88z"/>
<rect x="63.691" y="27.463" fill="#FFFFFF" width="63.47" height="83.086"/>
<path fill="#0963A1" d="M129,33.064v-9.032c0-4.98-4.42-9.032-9.854-9.032H71.853C66.42,15,62,19.052,62,24.032v93.937
	c0,4.979,4.42,9.031,9.853,9.031h47.293c5.434,0,9.854-4.053,9.854-9.031V94.484V33.064z M71.853,18.613h47.293
	c3.26,0,5.912,2.432,5.912,5.419v1.806H65.941v-1.806C65.941,21.044,68.594,18.613,71.853,18.613z M119.146,123.387H71.853
	c-3.259,0-5.912-2.432-5.912-5.418v-5.421h59.118v5.421C125.059,120.955,122.406,123.387,119.146,123.387z M125.059,94.484v14.451
	H65.941V29.452h59.118v3.613V94.484z"/>
<path fill="#0963A1" d="M109.294,116.161H81.706v3.612h27.588V116.161z"/>
<path fill="#DBFCFF" stroke="#0963A1" stroke-miterlimit="10" d="M136.912,131C150.768,131,162,119.832,162,106.057
	c0-13.776-11.232-24.944-25.088-24.944s-25.09,11.168-25.09,24.944C111.822,119.832,123.057,131,136.912,131z"/>
<path fill="#0963A1" d="M126.432,104.182c-0.873,0.541-1.158,1.699-0.634,2.59c0.524,0.883,1.664,1.162,2.544,0.623
	c6.049-3.742,13.93-1.813,17.566,4.301c0.262,0.441,0.677,0.736,1.137,0.849c0.459,0.112,0.963,0.044,1.4-0.228
	c0.873-0.539,1.158-1.698,0.634-2.588C144.395,101.841,134.23,99.352,126.432,104.182z"/>
<path fill="#0963A1" d="M130.078,110.313c-0.874,0.541-1.158,1.699-0.635,2.59c0.525,0.883,1.664,1.162,2.545,0.623
	c2.701-1.676,6.226-0.813,7.847,1.922c0.263,0.441,0.677,0.734,1.138,0.848c0.459,0.111,0.963,0.043,1.399-0.227
	c0.874-0.541,1.157-1.699,0.633-2.582C140.336,108.977,134.533,107.557,130.078,110.313z"/>
<path fill="#0963A1" d="M134.339,120.906c1.322,0.324,2.661-0.504,2.99-1.848c0.33-1.347-0.476-2.699-1.797-3.022
	c-1.322-0.324-2.661,0.504-2.99,1.849C132.212,119.23,133.018,120.584,134.339,120.906z"/>
<path fill="#0963A1" d="M155.242,105.91c-6.732-11.311-21.314-14.882-32.512-7.961c-0.873,0.54-1.156,1.699-0.633,2.589
	c0.525,0.883,1.664,1.162,2.545,0.623c9.442-5.848,21.748-2.835,27.428,6.717c0.262,0.442,0.677,0.735,1.137,0.849
	c0.459,0.112,0.963,0.043,1.4-0.228C155.48,107.959,155.766,106.8,155.242,105.91z"/>
</svg>
