<?xml version="1.0" encoding="utf-8"?>
<!-- Generator: Adobe Illustrator 16.0.0, SVG Export Plug-In . SVG Version: 6.00 Build 0)  -->
<!DOCTYPE svg PUBLIC "-//W3C//DTD SVG 1.1//EN" "http://www.w3.org/Graphics/SVG/1.1/DTD/svg11.dtd">
<svg version="1.1" id="Layer_1" xmlns="http://www.w3.org/2000/svg" xmlns:xlink="http://www.w3.org/1999/xlink" x="0px" y="0px"
	 width="200px" height="146px" viewBox="0 0 200 146" enable-background="new 0 0 200 146" xml:space="preserve">
<path fill="#DBFCFF" d="M86.168,106.736h19.661v-5.231l3.562-4.524l6.127-7.213l3.846-5.516l4.416-7.699l1.141-9.977l-1.281-8.768
	l-5.272-9.576l-7.552-5.98l-10.969-3.818H89.302l-9.118,3.677l-6.5,5.232l-5.467,8.202l-2.422,9.616l1.425,11.391l4.884,8.689
	l6.798,9.051l4.585,5.516l2.111,6.928"/>
<polygon fill="#FFFFFF" points="87.272,65.882 94.393,65.932 97.256,65.882 100.969,67.5 104.207,67.445 102.674,72.304 100,85.25 
	98.75,96.5 98.917,100.607 92.086,100.607 90.035,83.245 88.328,74 85.768,66.942 "/>
<path fill="#0963A1" d="M85.254,116.113c-0.973,0-1.767-0.784-1.767-1.75c0-0.967,0.79-1.75,1.767-1.75h20.496
	c0.973,0,1.764,0.783,1.764,1.75c0,0.966-0.791,1.75-1.764,1.75H85.254z"/>
<path fill="#0963A1" d="M87.531,123.059c-0.974,0-1.763-0.785-1.763-1.75c0-0.967,0.793-1.75,1.763-1.75h15.941
	c0.973,0,1.762,0.783,1.762,1.75c0,0.965-0.789,1.75-1.762,1.75H87.531z"/>
<path fill="#0963A1" d="M93.841,98.865c0,0.962-0.786,1.742-1.755,1.742s-1.755-0.781-1.755-1.742
	c-0.008-7.369-0.221-12.874-1.246-17.971c-1.014-5.039-2.828-9.709-6.049-15.47c-0.47-0.842-0.165-1.903,0.68-2.37
	c0.849-0.467,1.917-0.164,2.391,0.674c3.419,6.118,5.355,11.099,6.435,16.483C93.61,85.528,93.834,91.238,93.841,98.865z"/>
<path fill="#0963A1" d="M100.673,98.865c0,0.962-0.786,1.742-1.755,1.742s-1.755-0.781-1.755-1.742
	c0.007-7.628,0.231-13.334,1.3-18.652c1.08-5.385,3.016-10.365,6.434-16.483c0.472-0.842,1.543-1.145,2.389-0.674
	c0.849,0.467,1.148,1.531,0.68,2.37c-3.221,5.76-5.035,10.435-6.05,15.47C100.895,85.991,100.678,91.496,100.673,98.865z"/>
<path fill="#0963A1" d="M84.034,66.238c-0.925-0.292-1.432-1.276-1.138-2.195c0.297-0.919,1.285-1.422,2.211-1.13
	c1.227,0.394,2.289,0.922,3.269,1.411l0.096,0.051c1.531,0.766,2.806,1.364,3.753,0.598l2.167-1.754
	c0.753-0.605,1.862-0.492,2.472,0.255c0.61,0.748,0.496,1.849-0.257,2.454l-2.167,1.754c-2.699,2.18-4.907,1.119-7.566-0.204
	l-0.081-0.037C85.934,67.011,85,66.548,84.034,66.238z"/>
<path fill="#0963A1" d="M97.265,26.531c0,0.966-0.79,1.75-1.763,1.75c-0.973,0-1.763-0.784-1.763-1.75V19.75
	c0-0.966,0.79-1.75,1.763-1.75c0.974,0,1.763,0.784,1.763,1.75V26.531z"/>
<path fill="#0963A1" d="M105.896,62.913c0.926-0.295,1.918,0.211,2.211,1.13c0.299,0.918-0.213,1.903-1.137,2.195
	c-0.967,0.31-1.9,0.776-2.764,1.207l-0.08,0.037c-2.656,1.323-4.867,2.388-7.566,0.204l-2.167-1.753
	c-0.753-0.605-0.867-1.707-0.257-2.454c0.609-0.747,1.719-0.86,2.472-0.255l2.167,1.753c0.948,0.766,2.219,0.164,3.754-0.598
	l0.096-0.051C103.607,63.835,104.67,63.307,105.896,62.913z"/>
<path fill="#0963A1" d="M117.684,45.202c5.674,5.633,9.19,13.42,9.19,22.017c0,3.362-0.544,6.609-1.543,9.654
	c-1.032,3.146-2.563,6.082-4.492,8.699c-3.235,4.393-5.862,7.277-7.901,9.52c-3.668,4.028-5.277,5.793-5.277,11.686
	c0,0.966-0.79,1.75-1.764,1.75h-0.043H95.579H85.258c-0.973,0-1.767-0.784-1.767-1.75c0-5.834-1.642-7.617-5.286-11.58l-0.003-0.004
	l-0.004,0.004c-2.061-2.238-4.712-5.123-8.029-9.625c-1.928-2.617-3.46-5.557-4.492-8.703c-1-3.04-1.543-6.292-1.543-9.65
	c0-4.208,0.849-8.232,2.384-11.908l0.033-0.069c1.594-3.792,3.916-7.205,6.777-10.041c2.879-2.858,6.336-5.169,10.185-6.752v-0.003
	c3.703-1.524,7.757-2.366,11.996-2.366c4.232,0,8.283,0.842,11.989,2.366C111.34,40.028,114.805,42.343,117.684,45.202z
	 M123.344,67.219c0-7.631-3.119-14.54-8.154-19.542c-2.574-2.556-5.642-4.612-9.035-6.005c-3.27-1.345-6.869-2.089-10.652-2.089
	c-3.78,0-7.379,0.744-10.645,2.089v-0.003l-0.007,0.003c-3.394,1.393-6.457,3.449-9.032,6.005c-2.549,2.53-4.609,5.549-6.017,8.881
	l-0.037,0.095c-1.352,3.241-2.104,6.814-2.104,10.566c0,2.997,0.481,5.884,1.363,8.571c0.922,2.796,2.277,5.399,3.981,7.718
	c3.185,4.324,5.778,7.143,7.794,9.337l-0.004,0.003c3.923,4.256,5.874,6.385,6.178,12.182h8.599h8.598
	c0.301-5.837,2.215-7.944,6.156-12.269c1.969-2.161,4.5-4.943,7.67-9.245c1.704-2.315,3.059-4.919,3.979-7.715
	C122.863,73.103,123.344,70.219,123.344,67.219z"/>
<path fill="#0963A1" d="M89.809,130c-0.974,0-1.763-0.784-1.763-1.75s0.79-1.75,1.763-1.75h11.387c0.973,0,1.763,0.784,1.763,1.75
	s-0.79,1.75-1.763,1.75H89.809z"/>
<path fill="#0963A1" d="M117.133,32.748c-0.482,0.831-1.558,1.119-2.398,0.642c-0.838-0.478-1.129-1.546-0.646-2.381l3.416-5.873
	c0.48-0.832,1.557-1.12,2.398-0.642c0.841,0.478,1.127,1.546,0.646,2.381L117.133,32.748z"/>
<path fill="#0963A1" d="M76.913,31.012c0.481,0.831,0.195,1.899-0.646,2.377c-0.837,0.478-1.914,0.189-2.395-0.642l-3.416-5.874
	c-0.481-0.832-0.191-1.899,0.646-2.377c0.841-0.478,1.917-0.19,2.398,0.642L76.913,31.012z"/>
<path fill="#0963A1" d="M61.548,44.979c0.837,0.478,1.127,1.546,0.646,2.381c-0.481,0.831-1.558,1.119-2.395,0.642l-5.917-3.391
	c-0.841-0.478-1.131-1.546-0.65-2.377c0.481-0.835,1.557-1.119,2.398-0.642L61.548,44.979z"/>
<path fill="#0963A1" d="M131.204,48.001c-0.841,0.478-1.918,0.19-2.399-0.642c-0.48-0.835-0.191-1.903,0.647-2.381l5.917-3.391
	c0.841-0.478,1.917-0.189,2.398,0.642c0.481,0.832,0.191,1.903-0.646,2.381L131.204,48.001z"/>
<path fill="#0963A1" d="M77.184,74.135c0.375,0.887-0.044,1.91-0.937,2.282s-1.924-0.044-2.299-0.93
	c-0.599-1.407-1.065-2.891-1.374-4.422c-0.305-1.513-0.47-3.059-0.47-4.612c0-0.966,0.793-1.75,1.763-1.75
	c0.974,0,1.763,0.787,1.763,1.75c0,1.367,0.136,2.683,0.389,3.93C76.281,71.681,76.677,72.943,77.184,74.135z M77.184,58.768
	c-0.375,0.886-1.407,1.302-2.299,0.93s-1.311-1.396-0.937-2.282c0.591-1.389,1.315-2.705,2.142-3.927l0.003-0.003l-0.003-0.004
	c0.848-1.247,1.811-2.406,2.865-3.452c1.043-1.036,2.211-1.991,3.482-2.84v-0.003c1.219-0.817,2.553-1.535,3.963-2.125
	c1.415-0.594,2.906-1.058,4.452-1.364c1.524-0.306,3.089-0.467,4.65-0.467c0.974,0,1.763,0.784,1.763,1.75
	c0,0.966-0.79,1.75-1.763,1.75c-1.381,0-2.71,0.135-3.963,0.383c-1.311,0.259-2.579,0.656-3.776,1.159
	c-1.164,0.489-2.288,1.098-3.357,1.812h-0.004c-1.039,0.693-2.031,1.509-2.949,2.421c-0.907,0.901-1.73,1.889-2.439,2.935
	l-0.003-0.004C78.293,56.489,77.68,57.604,77.184,58.768z"/>
</svg>
