<svg width="200" height="146" viewBox="0 0 200 146" fill="none" xmlns="http://www.w3.org/2000/svg">
<path d="M53.9097 46.5287H161.119L166.078 51.1998L167.524 58.3961L166.904 79.2885V118.155L164.425 124.384L160.292 126.386H54.9137L49.9547 124.384L47.2686 118.378V52.8526L53.9097 46.5287Z" fill="#DBFCFF"/>
<path d="M62.1458 54.3141H132.605L137.151 59.4302V113.039L129.919 117.933H60.906L55.947 113.484V59.4302L61.3193 54.3141H62.1458Z" fill="white"/>
<path d="M131.455 52.8527H61.6642C57.3813 52.8527 53.9098 56.5901 53.9098 61.2006V111.29C53.9098 115.9 57.3815 119.638 61.6642 119.638H131.455C135.738 119.638 139.209 115.9 139.209 111.29V61.2006C139.209 56.5901 135.738 52.8527 131.455 52.8527ZM135.436 111.29C135.429 113.653 133.65 115.568 131.455 115.575H61.6642C59.4686 115.568 57.6906 113.653 57.6834 111.29V61.2006C57.6904 58.8372 59.4686 56.923 61.6642 56.9154H131.455C133.651 56.923 135.429 58.8372 135.436 61.2006V111.29H135.436Z" fill="#0963A1"/>
<path d="M159.707 44.4208H159.694H109.044L122.485 23.1468C123.067 22.2285 122.847 20.9765 121.994 20.3501C121.141 19.7239 119.978 19.9604 119.397 20.8789L105.167 43.3913L90.2783 28.9489C89.4516 28.2789 88.2765 28.4573 87.6542 29.3478C87.1066 30.1312 87.1614 31.225 87.7839 31.9402L100.708 44.4625H55.2926C50.1664 44.4779 46.0143 48.948 46 54.4665V117.996C46.0141 123.515 50.1664 127.985 55.2926 128H159.707C164.833 127.985 168.986 123.515 169 117.996V54.4248C168.986 48.9064 164.834 44.4362 159.707 44.4208ZM165.252 117.996C165.245 121.297 162.761 123.971 159.694 123.979H55.2926C52.2262 123.971 49.7424 121.297 49.7352 117.996V54.4248C49.7424 51.1238 52.2264 48.4495 55.2926 48.4417H159.707C162.774 48.4495 165.258 51.1238 165.265 54.4248L165.252 117.996Z" fill="#0963A1"/>
<path d="M157.2 58.6579L157.096 58.5527C154.182 55.5798 149.452 55.5761 146.532 58.5451C146.529 58.5476 146.527 58.5503 146.524 58.5527C143.605 61.5213 143.602 66.3382 146.517 69.3112C146.52 69.3139 146.522 69.3165 146.524 69.3188C149.545 72.1912 154.28 72.0265 157.101 68.9505C159.748 66.0644 159.791 61.5966 157.2 58.6579ZM154.512 66.634C153.048 68.1234 150.676 68.1234 149.212 66.634C147.861 65.0372 148.037 62.6272 149.604 61.2509C151.011 60.0163 153.092 60.0163 154.499 61.2509L154.576 61.3298C155.933 62.825 155.899 65.1413 154.499 66.5945L154.512 66.634Z" fill="#0963A1"/>
<path d="M155.778 77.7552C154.727 76.6829 153.299 76.0813 151.811 76.0839C148.713 76.0856 146.203 78.6445 146.204 81.7989C146.206 84.9537 148.719 87.5097 151.816 87.508C154.914 87.5063 157.424 84.9474 157.423 81.793C157.422 80.2784 156.831 78.8261 155.778 77.7552ZM153.129 83.1384L153.103 83.1517C152.375 83.9003 151.188 83.9054 150.453 83.1634C149.718 82.4217 149.713 81.2133 150.441 80.4648C151.17 79.7161 152.357 79.7109 153.091 80.4528C153.453 80.8177 153.654 81.3172 153.646 81.8355C153.644 82.3209 153.459 82.7876 153.129 83.1384Z" fill="#0963A1"/>
</svg>
